<svg width="24" height="24" viewBox="0 0 24 24" fill="none" xmlns="http://www.w3.org/2000/svg">
<path d="M9.3785 1.39059C7.92739 2.21316 6.70521 2.7967 5.60187 2.90794C5.22265 2.94614 4.8575 2.9167 4.5124 2.81944C3.84068 3.73725 3.76512 4.97588 4.09498 6.19519C4.36011 7.17534 4.89668 8.11472 5.53217 8.78292C5.5572 8.44814 5.59686 8.12395 5.65217 7.81917C5.81295 6.93417 6.06125 6.18333 6.65257 5.78873C6.94822 5.59139 7.35664 5.5418 7.71617 5.67797C7.98532 5.77997 8.23357 5.96002 8.48079 6.21506L11.2366 4.61897L9.37845 1.39059H9.3785ZM14.6421 1.39059L12.784 4.61902L15.5397 6.21502C15.787 5.96002 16.0352 5.77992 16.3044 5.67797C16.6639 5.54184 17.0724 5.59149 17.3681 5.78878C17.9593 6.18338 18.2076 6.93427 18.3684 7.81927C18.4237 8.12405 18.4633 8.44824 18.4883 8.78302C19.1238 8.11472 19.6604 7.17534 19.9256 6.19523C20.2555 4.97592 20.1799 3.7373 19.5082 2.81948C19.163 2.91675 18.7979 2.94619 18.4187 2.90794C17.3154 2.79675 16.0932 2.21325 14.642 1.39059H14.6421ZM2.86011 1.60209C1.82018 2.30363 1.25196 3.18909 1.01506 4.17966C0.752699 5.27681 0.90898 6.51703 1.38237 7.72228C2.20643 9.82013 3.99987 11.7693 5.94481 12.6226C5.67668 11.7992 5.53573 10.8588 5.50746 9.93769C4.45578 9.14559 3.63153 7.83666 3.24931 6.42394C2.88579 5.08036 2.93571 3.60366 3.70718 2.44238C3.39748 2.23191 3.11295 1.9523 2.86011 1.60209ZM21.1604 1.60209C20.9075 1.95225 20.623 2.23186 20.3134 2.44238C21.0849 3.60361 21.1347 5.08031 20.7712 6.42394C20.3889 7.83666 19.5646 9.14559 18.513 9.93769C18.4847 10.8588 18.3438 11.7992 18.0756 12.6225C20.0205 11.7693 21.8141 9.82017 22.6381 7.72233C23.1115 6.51708 23.2677 5.27686 23.0054 4.1797C22.7685 3.18914 22.2003 2.30363 21.1604 1.60209ZM11.0615 5.73272L9.69387 6.52491C12.174 11.2218 13.6103 16.3598 16.8533 20.3851L18.4232 19.2044C16.4184 16.9854 15.2684 14.8343 14.2735 12.6195C13.2975 10.447 12.4524 8.21423 11.0615 5.73267L11.0615 5.73272ZM12.959 5.73286C12.8047 6.00835 12.654 6.28588 12.507 6.56536C12.8281 7.19564 13.1185 7.80909 13.3909 8.40909C13.6891 7.77581 13.9991 7.14661 14.3271 6.52509L12.9591 5.73291L12.959 5.73286ZM10.6329 10.5854C10.3369 11.2725 10.048 11.9493 9.74698 12.6195C8.75201 14.8343 7.60198 16.9854 5.59723 19.2044L7.16726 20.3853C9.03476 18.0674 10.3027 15.3803 11.5162 12.6211C11.2207 11.9418 10.9286 11.2619 10.6329 10.5854ZM4.63953 19.5802L3.82203 20.662L6.19212 22.4445L7.00962 21.3627L4.63962 19.5802L4.63953 19.5802ZM19.381 19.5802L17.011 21.3628L17.8285 22.4446L20.1986 20.6621L19.3811 19.5802L19.381 19.5802Z" fill="#FFC067"/>
</svg>
