<svg width="24" height="24" viewBox="0 0 24 24" fill="none" xmlns="http://www.w3.org/2000/svg">
<g clip-path="url(#clip0_109_22)">
<path d="M2.04041 0.738281C1.30307 0.738281 0.713379 1.32811 0.713379 2.06545C0.713379 2.72573 1.18644 3.26752 1.81494 3.37355L2.00089 3.1875L3.22541 1.96434L3.3485 1.8413C3.24313 1.21219 2.70135 0.738281 2.04041 0.738281ZM3.62104 2.80664L2.82416 3.60352C3.56877 5.44898 4.86088 6.72933 6.51557 7.70067C6.89937 7.29735 7.29708 6.90749 7.70797 6.5318C6.65385 4.88634 5.29227 3.61177 3.62104 2.80664ZM15.1215 3.70453L12.7192 3.90675C8.99938 6.16303 5.97491 8.97394 3.96669 12.6503L3.76466 15.063L5.83443 14.1885L5.69661 12.5903L5.68489 12.4468L5.76111 12.3238C7.4458 9.58298 9.50783 7.19517 12.3939 5.70267L12.5067 5.64408L12.6327 5.6558L14.2323 5.79202L15.1215 3.70467V3.70453ZM12.1948 6.81591C11.7256 7.09181 11.2807 7.39425 10.8559 7.7212C13.0444 9.96792 14.9438 12.8113 16.2334 15.5259L16.7607 16.6376L15.6489 16.1089C12.9304 14.8173 10.1215 12.9415 7.88225 10.7695C7.54361 11.2152 7.22113 11.673 6.91546 12.142C11.6929 16.5909 17.5584 20.4531 23.2207 23.1431C20.5459 17.5122 16.6564 11.6034 12.1948 6.81586V6.81591ZM10.1777 8.27934C9.551 8.82792 8.9721 9.43153 8.43013 10.081C10.2751 11.8835 12.5591 13.4949 14.8373 14.7143C13.6161 12.4347 11.9895 10.1278 10.1777 8.27934Z" fill="#FFC067"/>
</g>
<defs>
<clipPath id="clip0_109_22">
<rect width="24" height="24" fill="white"/>
</clipPath>
</defs>
</svg>
