<svg width="30" height="31" viewBox="0 0 30 31" fill="none" xmlns="http://www.w3.org/2000/svg">
<path fill-rule="evenodd" clip-rule="evenodd" d="M24.6339 7.63389C25.122 7.14573 25.122 6.35428 24.6339 5.86611C24.1458 5.37796 23.3542 5.37796 22.8661 5.86611L17.54 11.1923C16.7956 10.7524 15.9272 10.5 15 10.5C12.2386 10.5 10 12.7386 10 15.5C10 16.4273 10.2524 17.2956 10.6923 18.04L5.36611 23.3661C4.87796 23.8543 4.87796 24.6458 5.36611 25.1339C5.85427 25.622 6.64572 25.622 7.13389 25.1339L12.46 19.8078C13.2044 20.2476 14.0727 20.5 15 20.5C17.7614 20.5 20 18.2614 20 15.5C20 14.5728 19.7476 13.7044 19.3077 12.96L24.6339 7.63389ZM15.6475 13.0846C15.441 13.0295 15.224 13 15 13C13.6192 13 12.5 14.1193 12.5 15.5C12.5 15.724 12.5295 15.941 12.5846 16.1475L15.6475 13.0846ZM14.3525 17.9154L17.4154 14.8525C17.4705 15.059 17.5 15.276 17.5 15.5C17.5 16.8808 16.3807 18 15 18C14.776 18 14.559 17.9705 14.3525 17.9154ZM19.7064 6.52588C18.2859 5.90061 16.7094 5.5 15 5.5C11.4344 5.5 8.44646 7.24328 6.24765 9.13244C4.04085 11.0285 2.50946 13.172 1.82984 14.2123C1.31632 14.9981 1.31632 16.0019 1.82984 16.7878C2.40345 17.6658 3.58382 19.3296 5.26492 20.9674L7.03282 19.1995C5.56937 17.7786 4.5143 16.3164 3.97502 15.5C4.613 14.5343 5.9729 12.6645 7.87684 11.0287C9.84252 9.33981 12.2697 8 15 8C15.9649 8 16.8919 8.16731 17.7741 8.45823L19.7064 6.52588ZM15 23C14.0352 23 13.1082 22.8326 12.226 22.5418L10.2937 24.4741C11.7142 25.0994 13.2907 25.5 15 25.5C18.5656 25.5 21.5536 23.7568 23.7525 21.8676C25.9593 19.9715 27.4906 17.828 28.1702 16.7878C28.6838 16.0019 28.6838 14.9981 28.1702 14.2123C27.5966 13.3343 26.4162 11.6703 24.7351 10.0326L22.9673 11.8005C24.4307 13.2214 25.4859 14.6836 26.0251 15.5C25.3871 16.4658 24.0273 18.3355 22.1233 19.9714C20.1576 21.6603 17.7304 23 15 23Z" fill="url(#paint0_linear_4_104)"/>
<defs>
<linearGradient id="paint0_linear_4_104" x1="15" y1="5.5" x2="15" y2="25.5" gradientUnits="userSpaceOnUse">
<stop stop-color="#FFC067"/>
<stop offset="1" stop-color="#99733E"/>
</linearGradient>
</defs>
</svg>
