<svg width="36" height="35" viewBox="0 0 36 35" fill="none" xmlns="http://www.w3.org/2000/svg">
<path d="M33.0938 17.8522C33.0938 16.811 33.0085 15.7653 32.8291 14.7416H18.3041V20.6369H26.621C26.4494 21.5803 26.0881 22.4791 25.5591 23.2789C25.03 24.0786 24.3442 24.7627 23.5431 25.2897V29.1178H28.5066C31.4203 26.4491 33.0938 22.5116 33.0938 17.8522Z" fill="#4285F4"/>
<path d="M18.3063 32.8125C22.4581 32.8125 25.9603 31.4562 28.5109 29.1156L23.5497 25.2897C22.1694 26.2237 20.3866 26.7531 18.3106 26.7531C14.2944 26.7531 10.8884 24.0581 9.66563 20.4356H4.54688V24.3797C5.83662 26.9199 7.80534 29.0528 10.2343 30.5414C12.6633 32.0301 15.4574 32.8162 18.3063 32.8125Z" fill="#34A853"/>
<path d="M9.65905 20.4357C9.01399 18.5347 9.01399 16.4741 9.65905 14.5732V10.6291H4.54468C3.46765 12.7609 2.90652 15.116 2.90652 17.5044C2.90652 19.8928 3.46765 22.2479 4.54468 24.3797L9.65905 20.4357Z" fill="#FBBC04"/>
<path d="M18.3063 8.24688C20.4995 8.21133 22.6195 9.03578 24.2125 10.5438L28.6094 6.17094C25.815 3.56795 22.1249 2.14206 18.3063 2.18969C15.4566 2.18608 12.6618 2.97299 10.2327 4.46291C7.80356 5.95282 5.83532 8.08734 4.54688 10.6291L9.65688 14.5688C10.8731 10.9419 14.2856 8.24688 18.3019 8.24688H18.3063Z" fill="#EA4335"/>
</svg>
