<svg width="14" height="24" viewBox="0 0 14 24" fill="none" xmlns="http://www.w3.org/2000/svg">
<path d="M11.6039 16.543C11.4319 16.21 11.0889 16 10.7139 16H8.72394L8.42896 15.484L9.62497 14.9821L4.85794 0.00012207H3.72296C3.61098 0.00012207 3.50195 0.0191064 3.39395 0.0401063C3.67796 0.877103 3.90493 1.54408 3.95195 1.6811L7.94793 13.6841C8.04093 13.9651 7.99495 14.2541 7.85793 14.492C7.68993 14.207 7.39195 14.0231 7.06195 14.0021C6.70997 13.973 6.40294 14.1301 6.20095 14.3971L6.13594 14.4831C6.10594 14.4281 6.06994 14.3771 6.04894 14.3161L2.05699 2.3231C2.00697 2.17708 1.96399 2.05108 1.91599 1.91308L0.0699624 11.7961C-0.186021 12.6681 0.279961 13.6141 1.14897 13.9401L5.38496 15.4781L4.99097 16.0001H3.29697C2.92197 16.0001 2.57997 16.2101 2.40798 16.5431C2.23699 16.8761 2.266 17.2781 2.485 17.5831L3.49998 19.0001L2.485 20.4181C2.266 20.7221 2.23699 21.1241 2.40798 21.4571C2.57997 21.7911 2.92197 22.0001 3.29697 22.0001H4.99196L6.20794 23.6041C6.39792 23.8541 6.69192 24.0001 7.00495 24.0001C7.31793 24.0001 7.61296 23.8541 7.80196 23.6051L9.01898 22.0001H10.714C11.089 22.0001 11.4319 21.7911 11.604 21.4571C11.775 21.1241 11.746 20.7221 11.527 20.4181L10.512 19.0001L11.527 17.5831C11.7459 17.278 11.7749 16.876 11.6039 16.543Z" fill="#FFC067"/>
<path d="M13.5473 11.6269L11.3263 1.29692C11.3183 1.25693 11.3073 1.2169 11.2933 1.1779C11.0463 0.472953 10.3793 -6.10352e-05 9.63228 -6.10352e-05H6.95728L11.4773 14.2049L12.4823 13.7829C13.3473 13.4589 13.8133 12.5029 13.5473 11.6269Z" fill="#FFC067"/>
</svg>
