<svg width="57" height="59" viewBox="0 0 57 59" fill="none" xmlns="http://www.w3.org/2000/svg">
<path d="M48.1619 44.7733H39.3356L39.2519 44.6199C39.2838 39.1517 41.3818 33.5583 45.3666 29.1457C48.3452 25.8495 50.5926 21.5096 51.7462 17.2L46.6198 14.0592L51.3776 13.1892L45.9862 9.93931L52.4675 8.82507C51.8179 3.89579 48.8811 0.246262 42.8482 0.246262C36.9606 1.40491 20.1866 1.75815 11.5098 0.619693C10.41 0.256355 9.30218 0.044408 8.22031 0.00605567C8.21234 0.00403713 8.20437 0.00201854 8.1964 0C8.20039 0.00201854 8.20636 0.00403713 8.21035 0.00605567C5.38912 -0.0888159 2.75517 1.01735 0.944079 3.80495C-1.57232 7.67854 1.10746 14.3276 7.01292 14.3276C7.34565 14.3276 7.65049 14.3095 7.92942 14.2751V14.3216H15.3053C14.1895 18.8774 11.4221 23.944 8.21832 29.0489C7.94935 29.4768 7.68834 29.9148 7.43531 30.3589L11.7728 34.8602L4.77745 36.0471C0.708976 46.8746 1.36846 58.9798 10.7805 58.9798L11.7548 58.9859V59H22.4122V58.9798H50.499C58.9667 58.9798 60.1282 44.7713 48.1659 44.7713L48.1619 44.7733ZM23.1394 51.6061C23.1394 51.5475 23.1374 51.487 23.1354 51.4264C23.1374 51.487 23.1394 51.5455 23.1394 51.6061ZM9.70863 13.5969C11.454 12.0911 9.63691 8.53238 7.54688 5.57118H14.7534C15.9588 7.92682 16.0823 10.6458 15.4667 13.5969H9.70863ZM15.2634 46.5415C18.4871 45.4556 22.1412 47.5306 22.8664 50.7684C22.9899 51.3215 23.0696 51.8443 23.1095 52.3388C23.1135 52.2863 23.1175 52.2338 23.1195 52.1814C23.0398 53.3501 22.6971 54.323 22.1472 55.1264H22.0834C22.0216 55.2152 21.9579 55.302 21.8921 55.3848L21.9918 55.3404C21.0693 56.5616 19.6547 57.3771 17.9711 57.9039H16.2218L16.3075 57.8656C14.4645 57.8656 12.3466 57.69 12.3466 57.69C15.0821 57.6456 16.2596 56.4728 16.7099 55.1284C14.7613 55.845 12.6853 54.5552 12.0318 52.6517C11.1491 50.0821 12.8108 47.3671 15.2634 46.5415ZM22.0017 55.3303C22.0515 55.2637 22.0993 55.1971 22.1472 55.1305C22.1013 55.1991 22.0515 55.2657 22.0017 55.3303Z" fill="url(#paint0_linear_1_9)"/>
<defs>
<linearGradient id="paint0_linear_1_9" x1="28.5" y1="0" x2="28.5" y2="59" gradientUnits="userSpaceOnUse">
<stop stop-color="#FFC067"/>
<stop offset="1" stop-color="#99733E"/>
</linearGradient>
</defs>
</svg>
