<svg width="24" height="24" viewBox="0 0 24 24" fill="none" xmlns="http://www.w3.org/2000/svg">
<path d="M21.2483 0.802368C21.2227 1.14137 21.3242 1.5279 21.5275 1.86231C21.7309 2.19667 22.0275 2.46451 22.3402 2.59777C22.7928 2.07249 22.0832 0.817743 21.3984 0.787275C21.3473 0.783993 21.2928 0.793697 21.2483 0.802368ZM16.0195 1.19518L15.445 2.32548L18.3052 7.02826L19.5065 6.92856L20.1476 5.90776L19.7227 5.20932L18.4412 5.98876L16.6632 3.06512L16.4438 2.7047L17.7254 1.92526L17.2873 1.20488L16.0195 1.19518ZM20.4247 1.27112L17.6031 2.98721L18.7236 4.82954L21.5452 3.11345C21.2478 2.89763 20.9979 2.61493 20.8067 2.30063C20.6156 1.98638 20.4795 1.63454 20.4247 1.27112ZM14.5648 2.19507L6.98763 2.31788C7.47528 3.44457 7.33882 4.53024 6.78195 5.39513C5.90735 4.72777 4.70346 4.67448 3.80974 4.56465C3.15068 10.369 3.51818 15.1569 3.51579 20.6029C3.5156 21.0467 3.46156 21.6866 3.74201 22.1473C3.83046 22.2926 3.94685 22.4251 4.12306 22.5383C4.95312 22.2474 6.06392 21.9552 6.69509 21.4942C6.36926 21.4555 6.00345 21.5388 5.70424 21.539C5.30778 21.5371 4.80687 21.2526 4.54418 20.6251C4.40735 20.2982 4.23312 19.7723 4.5357 19.2624C4.66873 19.0381 4.97553 18.7794 5.20413 18.7782C9.6409 18.8019 14.1756 18.7632 18.3089 18.7854C18.05 15.1831 17.8395 11.5622 18.0497 7.89601L17.8553 7.91209L17.1596 6.76815L14.0252 8.67446L14.3431 9.17124L13.6324 9.62588L10.8622 5.29599L11.5728 4.84131L11.9532 5.43591L15.1623 3.48418L14.6021 2.56309L14.4799 2.36223L14.5648 2.19507ZM6.11937 2.40052C5.39909 2.78551 4.75521 3.23031 4.19796 3.74617C4.95579 3.81624 5.77953 3.88974 6.47796 4.21257C6.6251 3.56401 6.32576 2.95182 6.11937 2.40052ZM15.6007 4.20493L12.4767 6.10496L12.8177 6.66568L14.3798 5.71576L14.8181 6.43656L13.2562 7.38657L13.5973 7.94734L16.7212 6.04735L15.6007 4.20493ZM9.44117 6.38804L9.46202 7.23142C8.03131 7.24327 6.71421 7.32652 5.24267 7.33032V6.48657C6.64221 6.45549 8.04171 6.42263 9.44117 6.38799V6.38804ZM16.2372 10.0902L16.2485 10.9338L5.26353 11.0811L5.25218 10.2376L16.2372 10.0902ZM16.2409 11.9973L16.26 12.8407L10.4637 12.9724L10.4445 12.1289L16.2409 11.9973ZM5.21693 12.1425H9.4639V12.9861H5.21693V12.1425ZM16.2229 13.7004L16.242 14.5438L13.3283 14.6097L13.3093 13.7663L16.2229 13.7004ZM12.3002 13.7686L12.316 14.6122L5.2707 14.7438L5.2549 13.9004L12.3002 13.7686ZM16.3289 16.2439L16.3477 17.0874L10.458 17.2191L10.4392 16.3757L16.3289 16.2439ZM7.12624 19.5622C7.59734 19.9963 7.96648 20.5965 7.83302 21.2834C7.73581 21.7841 7.34449 22.1086 6.90424 22.3665C6.46399 22.6243 5.93042 22.8289 5.38024 23.0187C5.18933 23.0845 4.99811 23.1494 4.80659 23.2134L18.9341 22.8538C19.2984 22.8327 19.6212 22.5885 19.8591 22.2254C20.0974 21.8619 20.2096 21.3902 20.1823 21.1362C20.155 20.8822 19.9547 20.4482 19.668 20.1293C19.3813 19.8103 19.033 19.6219 18.7762 19.6316L18.7669 19.632L7.12624 19.5622ZM5.26132 19.6929C5.21117 19.7773 5.23948 20.1013 5.3224 20.2994C5.49678 20.7159 5.60496 20.6949 5.70828 20.6953C6.12438 20.7938 6.52142 20.7079 6.91999 20.6473C6.82376 20.454 6.67235 20.2393 6.43798 20.0795C6.24485 19.9478 5.46884 19.3466 5.26132 19.6929Z" fill="#FFC067"/>
</svg>
